<?xml version="1.0" encoding="UTF-8"?>
<svg id="Layer_1" xmlns="http://www.w3.org/2000/svg" version="1.1" viewBox="0 0 376.87 196.09">
  <!-- Generator: Adobe Illustrator 29.5.1, SVG Export Plug-In . SVG Version: 2.1.0 Build 141)  -->
  <defs>
    <style>
      .st0 {
        fill: #04a9ef;
      }

      .st1 {
        fill: #fff;
      }
    </style>
  </defs>
  <rect class="st0" width="376.87" height="196.09"/>
  <path class="st1" d="M70.77,26.44c-47.46,3.04-61.66,61.95-21.24,83.77,14.66,7.91,36.84,7.4,50.93-1.63.65-.42,3.82-2.71,4.12-3.1.63-.83.4-1.5.06-2.37-.86-2.18-7.35-11.38-9.11-13.61-.29-.36-1.22-1.43-1.56-1.49-5.38,3.64-10.17,6.84-16.83,7.82-11.14,1.64-24.04-5.98-27.35-16.67-7.35-23.72,18.43-41.64,39.05-27.42,1.43.98,3.76,4.08,5.51,3.5l10.22-17.79-.57-.97c-2.03-1.16-3.67-2.61-5.7-3.8-7.94-4.66-18.29-6.81-27.52-6.21Z"/>
  <path class="st1" d="M224.4,41.36v-12.03h-21.44v83.81h21.83v-44.54c0-5.48,4.03-12.88,8.68-15.91,6.55-4.27,14.16-3.72,21.53-2.36.73-.46.35-6.09.41-7.3.05-.89.38-1.71.41-2.6.05-1.59.16-11.71-.19-12.24-11.95-4.09-22.01,1.16-29.09,10.56-.66.88-.81,2.61-2.13,2.61Z"/>
  <path class="st1" d="M345.4,77.44c1.4-15.2-3.08-31.13-15.12-41.35-14.45-12.28-39.08-12.36-54.31-1.42-28.12,20.19-23.3,65.94,10.26,77.74,15.21,5.34,36.29,3.15,49.34-6.46,1.49-1.1,5.73-4.2,5.17-6.06s-10.73-9.95-12.43-12.24c-.75-.14-3.99,2.94-4.99,3.63-8.56,5.86-20.22,8.2-30.09,4.11-6.96-2.88-13.17-10.46-13.69-17.95h65.87Z"/>
  <path class="st1" d="M30.26,136.07v6.01l5.74.38v23.49s.53.56.57.56h6.51s.57-.52.57-.56v-23.49c1.09-1.06,7.28.76,7.28-.56v-5.83h-7.28v-5.83c0-.1.81-1.47.99-1.66,2.14-2.37,6.73-.46,7.05-.78-.4-3.26,2.48-6.53-2.15-7.1-10.51-1.29-14.14,5.81-13.72,15.01-.54.76-4.45.16-5.58.35Z"/>
  <path class="st1" d="M191.47,121.04h-6.7s-.57.52-.57.56v17.85c-1.45-.5-2.31-1.76-3.71-2.56-7.8-4.44-17.7-.41-20.71,7.71-5.89,15.93,10.75,29.81,24.42,18.14-1.01,5.19,3.82,3.64,7.28,3.38v-45.1Z"/>
  <path class="st1" d="M258.76,121.88c-5.52.93-4.85,9.61,1.34,9.22,6.58-.41,5.59-10.39-1.34-9.22Z"/>
  <path class="st1" d="M249.67,136.07h-5.55c-.53,0-2.87-.5-3.25-.94v-7.52c0-1.22-5.4.23-6.32-.19-.31-.01-.96.35-.96.56v7.7c-.98.52-5.74-.64-5.74.56v5.83h5.74v16.72c0,.86,1.17,3.85,1.75,4.67,2.51,3.56,7.43,3.85,11.46,3.41,4.96-.54,2.93-3.34,2.51-6.99-.75-.52-6.52,2.25-7.89-2.02-.24-.76-.54-4.41-.57-5.45-.06-1.81.37-3.36.4-4.9.03-1.63-.87-3.53,0-5.45h8.42v-6.01Z"/>
  <path class="st1" d="M69.25,135.05c-22.1.58-21.25,32.47.65,32.25,22.21-.22,21.99-32.84-.65-32.25Z"/>
  <path class="st1" d="M133.26,166.14v-18.6c0-.51,1.8-3.66,2.3-4.14,3.73-3.58,10.1-1.69,10.72,3.76.35,3.08-.61,17.31.19,18.6.1.17,1.04.75,1.15.75h5.74c.42,0,.55-.92.59-1.3.46-3.85.43-19.5-.51-22.84-2.15-7.56-11.99-9.55-17.89-5l-2.67,2.82c-.09-.8.33-4.51-.58-4.51h-6.13s-.57.52-.57.56v29.69s.53.56.57.56h6.13c.13,0,.58-.5.96-.38Z"/>
  <path class="st1" d="M217.12,147.72h-10.53c-3.27,0-8.89,3.54-9.95,6.77-4.03,12.19,13.56,16.63,20.29,8.27.58.7-.24,2.97.41,3.42.7.49,6.59.02,6.89-.39-.43-7.17,2.23-21.7-2.9-27.27-4.98-5.41-18.1-4.17-22.95,1.18-.06.35,3.17,4.15,3.67,4.23,5.07-4.21,15.3-4.72,15.07,3.8Z"/>
  <path class="st1" d="M308.06,166.52c1.29.27,4.2,0,5.74,0,.27,0,.52-.63.57-.94,1.17-6.25-3.15-20.81,4.89-23.38,3.85-1.23,6.93.05,8.03,3.93.83,3.26-.87,17.76.28,19.64.1.17,1.04.75,1.15.75h5.74c.42,0,.55-.92.59-1.3.56-4.71.37-15.07,0-19.95-.87-11.37-14.83-13.85-20.89-5.06-.58-.96.3-3.76-.55-4.35-1.43.17-5.94-.55-6.74.57-.99,1.38.26,25.72.02,29.34.11.17.96.71,1.15.75Z"/>
  <path class="st1" d="M281.74,135.42c-18.53,2.46-17.52,31.61,3.37,31.86,23.28.28,22.89-35.35-3.37-31.86Z"/>
  <path class="st1" d="M119.09,136.07h-7.08s-.57.52-.57.56v18.42c0,.31-1.67,3.17-2.09,3.58-3.38,3.37-9.39,2.03-10.45-2.92-1.34-6.21.6-12.7-.07-18.35-.05-.38-.17-1.3-.59-1.3h-7.08v22.36c0,3.22,3.59,7.12,6.68,8.1,5.47,1.74,9.7.19,13.8-3.41.31,0-.07,3.39,1.15,3.39h5.74s.57-.52.57-.56v-29.88Z"/>
  <path class="st1" d="M263.45,136.07h-7.08s-.57.52-.57.56v29.5c2.65,0,5.01.82,7.66,0v-30.07Z"/>
  <path class="st1" d="M345.4,77.44h-65.87c.52,7.49,6.73,15.06,13.69,17.95,9.86,4.09,21.53,1.74,30.09-4.11,1-.69,4.24-3.77,4.99-3.63,1.71,2.28,11.88,10.43,12.43,12.24s-3.68,4.96-5.17,6.06c-13.05,9.61-34.13,11.8-49.34,6.46-33.56-11.8-38.38-57.54-10.26-77.74,15.23-10.94,39.86-10.85,54.31,1.42,12.03,10.23,16.51,26.15,15.12,41.35ZM323.57,62.41c-.46-23.11-34.54-26.67-42.84-6.15-.41,1.01-1.54,4.42-1.51,5.3.01.35.27.85.5.85h43.84Z"/>
  <path class="st1" d="M224.4,41.36c1.32,0,1.47-1.73,2.13-2.61,7.09-9.4,17.14-14.65,29.09-10.56.36.53.25,10.65.19,12.24-.03.89-.37,1.71-.41,2.6-.06,1.21.32,6.84-.41,7.3-7.37-1.36-14.97-1.91-21.53,2.36-4.65,3.03-8.68,10.43-8.68,15.91v44.54h-21.83V29.33h21.44v12.03Z"/>
  <path class="st1" d="M191.47,121.04v45.1c-3.46.26-8.29,1.81-7.28-3.38-13.67,11.67-30.31-2.22-24.42-18.14,3.01-8.13,12.91-12.15,20.71-7.71,1.4.8,2.27,2.05,3.71,2.56v-17.85s.53-.56.57-.56h6.7ZM172.98,141.8c-9.32,1.54-9.07,17.74.67,18.7,14.87,1.47,14.48-21.2-.67-18.7Z"/>
  <path class="st1" d="M69.25,135.05c22.64-.59,22.86,32.03.65,32.25-21.9.22-22.75-31.67-.65-32.25ZM67.68,141.8c-10.83,1.82-9.48,20.88,4.03,18.61,10.92-1.83,9.53-20.9-4.03-18.61Z"/>
  <path class="st1" d="M281.74,135.42c26.26-3.49,26.65,32.15,3.37,31.86-20.88-.26-21.89-29.4-3.37-31.86ZM282.88,141.8c-9.76,1.63-9.7,19.65,3.37,18.71,12.05-.87,11.05-21.12-3.37-18.71Z"/>
  <path class="st1" d="M217.12,147.72c.23-8.52-10-8.01-15.07-3.8-.5-.09-3.72-3.88-3.67-4.23,4.85-5.35,17.96-6.59,22.95-1.18,5.13,5.57,2.46,20.1,2.9,27.27-.3.42-6.18.88-6.89.39-.65-.45.16-2.72-.41-3.42-6.73,8.36-24.32,3.93-20.29-8.27,1.06-3.22,6.69-6.77,9.95-6.77h10.53ZM209.27,152.61c-10.67,1.76-5.3,11.97,3.35,8.17,2.92-1.28,6.08-8.17,3.93-8.17h-7.28Z"/>
  <path class="st1" d="M133.26,166.14c-.38-.12-.83.38-.96.38h-6.13s-.57-.52-.57-.56v-29.69s.53-.56.57-.56h6.13c.91,0,.49,3.71.58,4.51l2.67-2.82c5.9-4.55,15.74-2.56,17.89,5,.95,3.33.97,18.99.51,22.84-.05.38-.17,1.3-.59,1.3h-5.74c-.11,0-1.04-.58-1.15-.75-.8-1.3.16-15.52-.19-18.6-.63-5.45-6.99-7.34-10.72-3.76-.5.48-2.3,3.63-2.3,4.14v18.6Z"/>
  <path class="st1" d="M308.06,166.52c-.19-.04-1.04-.58-1.15-.75.24-3.62-1.01-27.96-.02-29.34.8-1.12,5.31-.4,6.74-.57.86.6-.03,3.39.55,4.35,6.06-8.79,20.02-6.31,20.89,5.06.37,4.88.57,15.25,0,19.95-.05.38-.17,1.3-.59,1.3h-5.74c-.11,0-1.04-.58-1.15-.75-1.16-1.88.55-16.38-.28-19.64-1.11-3.88-4.18-5.16-8.03-3.93-8.05,2.57-3.73,17.14-4.89,23.38-.06.31-.31.94-.57.94-1.54,0-4.45.27-5.74,0Z"/>
  <path class="st1" d="M119.09,136.07v29.88s-.53.56-.57.56h-5.74c-1.22,0-.84-3.39-1.15-3.39-4.1,3.6-8.34,5.15-13.8,3.41-3.09-.99-6.68-4.88-6.68-8.1v-22.36h7.08c.42,0,.55.92.59,1.3.67,5.65-1.27,12.14.07,18.35,1.06,4.95,7.07,6.29,10.45,2.92.42-.42,2.09-3.27,2.09-3.58v-18.42s.53-.56.57-.56h7.08Z"/>
  <path class="st1" d="M70.77,26.44c9.24-.59,19.58,1.55,27.52,6.21,2.03,1.19,3.67,2.65,5.7,3.8l.57.97-10.22,17.79c-1.75.58-4.09-2.51-5.51-3.5-20.61-14.22-46.39,3.7-39.05,27.42,3.31,10.69,16.21,18.31,27.35,16.67,6.67-.98,11.45-4.18,16.83-7.82.34.06,1.28,1.13,1.56,1.49,1.76,2.23,8.25,11.43,9.11,13.61.34.87.57,1.54-.06,2.37-.29.39-3.47,2.68-4.12,3.1-14.09,9.03-36.26,9.55-50.93,1.63C9.11,88.39,23.31,29.48,70.77,26.44ZM102.94,37.29c-.09-.14-2.37-1.81-2.72-2.02-10.94-6.74-22.75-9.19-35.6-6.97-37.27,6.43-50.28,51.7-21.59,76.08,14.85,12.62,37.91,13.13,54.83,4.28.96-.5,5.54-3.62,5.92-4.34.35-.68-.7-.58-.93-.94-2.35-3.74-4.99-9.2-7.86-12.51-.34-.39-1.76-1.11-2.31-.82-.58.3-1.1,1.3-1.72,1.7-21.66,13.86-47.88-1.2-43.04-26.84,1.81-9.6,9.87-16.33,19.24-18.69s15.15-.24,22.8,4.78c2.84,1.87,3.16,4.12,5.73-.08,1.93-3.15,3.69-6.91,5.54-10.17.37-.64,2.43-2.24,1.71-3.44Z"/>
  <path class="st1" d="M30.26,136.07c1.13-.19,5.03.41,5.58-.35-.42-9.21,3.2-16.3,13.72-15.01,4.63.57,1.75,3.84,2.15,7.1-.32.32-4.91-1.59-7.05.78-.17.19-.99,1.57-.99,1.66v5.83h7.28v5.83c0,1.32-6.18-.5-7.28.56v23.49s-.53.56-.57.56h-6.51s-.57-.52-.57-.56v-23.49l-5.74-.38v-6.01Z"/>
  <path class="st1" d="M249.67,136.07v6.01h-8.42c-.87,1.92.03,3.82,0,5.45s-.45,3.09-.4,4.9c.03,1.04.32,4.69.57,5.45,1.37,4.27,7.14,1.49,7.89,2.02.42,3.64,2.45,6.45-2.51,6.99-4.03.44-8.96.15-11.46-3.41-.58-.82-1.75-3.81-1.75-4.67v-16.72h-5.74v-5.83c0-1.2,4.76-.04,5.74-.56v-7.7c0-.21.64-.58.96-.56.92.42,6.32-1.03,6.32.19v7.52c.38.44,2.72.94,3.25.94h5.55Z"/>
  <path class="st1" d="M263.45,136.07v30.07c-2.65.82-5.01,0-7.66,0v-29.5s.53-.56.57-.56h7.08Z"/>
  <path class="st1" d="M258.76,121.88c6.93-1.17,7.93,8.8,1.34,9.22-6.2.39-6.86-8.28-1.34-9.22Z"/>
  <path class="st0" d="M323.57,62.41h-43.84c-.24,0-.49-.5-.5-.85-.03-.89,1.1-4.29,1.51-5.3,8.3-20.51,42.38-16.96,42.84,6.15Z"/>
  <path class="st0" d="M172.98,141.8c15.15-2.5,15.54,20.17.67,18.7-9.74-.96-9.99-17.16-.67-18.7Z"/>
  <path class="st0" d="M67.68,141.8c13.56-2.28,14.95,16.78,4.03,18.61-13.51,2.26-14.86-16.79-4.03-18.61Z"/>
  <path class="st0" d="M282.88,141.8c14.42-2.41,15.42,17.85,3.37,18.71-13.07.94-13.13-17.08-3.37-18.71Z"/>
  <path class="st0" d="M209.27,152.61h7.28c2.15,0-1.01,6.89-3.93,8.17-8.65,3.8-14.02-6.41-3.35-8.17Z"/>
  <path class="st1" d="M102.94,37.29c.72,1.2-1.35,2.8-1.71,3.44-1.85,3.25-3.61,7.01-5.54,10.17-2.57,4.2-2.89,1.95-5.73.08-7.65-5.03-13.54-7.12-22.8-4.78s-17.43,9.09-19.24,18.69c-4.84,25.64,21.38,40.69,43.04,26.84.61-.39,1.14-1.39,1.72-1.7s1.97.43,2.31.82c2.87,3.31,5.51,8.77,7.86,12.51.23.37,1.28.27.93.94-.38.72-4.96,3.84-5.92,4.34-16.92,8.85-39.98,8.34-54.83-4.28-28.68-24.38-15.68-69.65,21.59-76.08,12.85-2.22,24.66.24,35.6,6.97.35.22,2.63,1.88,2.72,2.02Z"/>
  <path class="st1" d="M172.84,54.65c-.05-.17-1.23-2.62-1.46-3.08-6.85-13.84-29.44-9.23-38.96-.5h-.55s-8.76-12.29-8.76-12.29c-.14-.45.04-.72.3-1.06.2-.25,3.92-2.77,4.5-3.11,17.44-10.1,53.74-12.02,61.5,10.91,6.1,18.02.7,43.81,2.59,62.89l-.44,3.51c-.52.65-16.09.65-16.81.23-1.52-.88-.39-8.2-.77-10.14-.12-.61-.45-1.01-.99-1.31-3.17,2.44-4.94,5.93-8.38,8.24-16.73,11.22-46.89,5.23-48.45-17.45-1.66-24.11,22.62-30.75,42.71-29.52,3.86.24,8.83,1.9,12.26,1.91.47,0,1.72-.09,1.72-.59,0-1.93.39-7.23,0-8.64ZM157.07,75.25c-6.43.13-18.4,2.06-20.42,9.27s3.77,13.12,10.91,14.13c10.85,1.54,21.04-3.44,23.95-14.11.63-2.3,2.13-7.04-.57-8.09-2.85-1.11-10.58-1.27-13.87-1.2Z"/>
</svg>